<svg width="108" height="107" viewBox="0 0 108 107" fill="none" xmlns="http://www.w3.org/2000/svg">
<rect x="0.849731" y="0.367188" width="100" height="100" fill="#ADFFC4"/>
<path d="M26.3145 50.3672V39.0072H27.4345V49.3752H33.9945V50.3672H26.3145ZM38.7329 50.5272C37.8262 50.5272 37.1489 50.2285 36.7009 49.6312C36.2635 49.0232 36.0449 48.1219 36.0449 46.9272V42.0312H37.1329V46.7352C37.1329 48.6232 37.7782 49.5672 39.0689 49.5672C39.3889 49.5672 39.7035 49.5139 40.0129 49.4072C40.3222 49.3005 40.6049 49.1459 40.8609 48.9432C41.1275 48.7405 41.3622 48.5005 41.5649 48.2232C41.7782 47.9459 41.9489 47.6312 42.0769 47.2792V42.0312H43.1649V48.9592C43.1649 49.2579 43.2929 49.4072 43.5489 49.4072V50.3672C43.4209 50.3885 43.3142 50.3992 43.2289 50.3992C43.1542 50.3992 43.1009 50.3992 43.0689 50.3992C42.8129 50.3885 42.6049 50.2979 42.4449 50.1272C42.2849 49.9565 42.2049 49.7272 42.2049 49.4392V48.4792C41.8422 49.1299 41.3462 49.6365 40.7169 49.9992C40.0982 50.3512 39.4369 50.5272 38.7329 50.5272ZM46.6329 42.0312L49.1289 45.2952L49.2569 45.5352L49.3849 45.2952L51.8809 42.0312H53.0489L49.8649 46.2232L53.0489 50.3672H51.8809L49.3849 47.1192L49.2569 46.8952L49.1289 47.1192L46.6329 50.3672H45.4649L48.6489 46.2232L45.4649 42.0312H46.6329ZM55.2874 50.3672V42.0312H56.3754V50.3672H55.2874ZM55.2874 40.2872V38.6872H56.3754V40.2872H55.2874ZM62.1798 50.5272C61.2731 50.5272 60.5958 50.2285 60.1478 49.6312C59.7104 49.0232 59.4918 48.1219 59.4918 46.9272V42.0312H60.5798V46.7352C60.5798 48.6232 61.2251 49.5672 62.5158 49.5672C62.8358 49.5672 63.1504 49.5139 63.4598 49.4072C63.7691 49.3005 64.0518 49.1459 64.3078 48.9432C64.5744 48.7405 64.8091 48.5005 65.0118 48.2232C65.2251 47.9459 65.3958 47.6312 65.5238 47.2792V42.0312H66.6118V48.9592C66.6118 49.2579 66.7398 49.4072 66.9958 49.4072V50.3672C66.8678 50.3885 66.7611 50.3992 66.6758 50.3992C66.6011 50.3992 66.5478 50.3992 66.5158 50.3992C66.2598 50.3885 66.0518 50.2979 65.8918 50.1272C65.7318 49.9565 65.6518 49.7272 65.6518 49.4392V48.4792C65.2891 49.1299 64.7931 49.6365 64.1638 49.9992C63.5451 50.3512 62.8838 50.5272 62.1798 50.5272ZM82.2718 50.3672H81.1838V45.7112C81.1838 44.7405 81.0291 44.0259 80.7198 43.5672C80.4104 43.1085 79.9518 42.8792 79.3438 42.8792C79.0238 42.8792 78.7198 42.9379 78.4318 43.0552C78.1544 43.1725 77.8931 43.3379 77.6478 43.5512C77.4131 43.7645 77.2051 44.0205 77.0238 44.3192C76.8424 44.6072 76.7038 44.9272 76.6078 45.2792V50.3672H75.5198V45.7112C75.5198 44.7192 75.3704 43.9992 75.0718 43.5512C74.7731 43.1032 74.3144 42.8792 73.6958 42.8792C73.0664 42.8792 72.5064 43.0979 72.0158 43.5352C71.5251 43.9725 71.1731 44.5485 70.9598 45.2632V50.3672H69.8718V42.0312H70.8638V43.9192C71.2051 43.2792 71.6531 42.7832 72.2078 42.4312C72.7624 42.0685 73.3758 41.8872 74.0478 41.8872C74.7518 41.8872 75.3118 42.0845 75.7278 42.4792C76.1544 42.8739 76.4158 43.3912 76.5118 44.0312C77.2904 42.6019 78.3624 41.8872 79.7278 41.8872C80.1971 41.8872 80.5918 41.9725 80.9118 42.1432C81.2424 42.3139 81.5038 42.5592 81.6958 42.8792C81.8984 43.1885 82.0424 43.5672 82.1278 44.0152C82.2238 44.4525 82.2718 44.9432 82.2718 45.4872V50.3672ZM26.3145 74.3672V63.0072H27.4345V74.3672H26.3145ZM37.8673 74.3672H36.7793V69.7112C36.7793 68.7192 36.6299 67.9992 36.3313 67.5512C36.0433 67.1032 35.5953 66.8792 34.9873 66.8792C34.6673 66.8792 34.3473 66.9379 34.0273 67.0552C33.7073 67.1725 33.4086 67.3379 33.1313 67.5512C32.8646 67.7645 32.6246 68.0205 32.4113 68.3192C32.1979 68.6072 32.0433 68.9219 31.9473 69.2632V74.3672H30.8593V66.0312H31.8513V67.9192C32.1926 67.3112 32.6779 66.8205 33.3073 66.4472C33.9473 66.0739 34.6406 65.8872 35.3873 65.8872C35.8459 65.8872 36.2353 65.9725 36.5553 66.1432C36.8753 66.3139 37.1313 66.5539 37.3233 66.8632C37.5153 67.1725 37.6539 67.5512 37.7393 67.9992C37.8246 68.4472 37.8673 68.9432 37.8673 69.4872V74.3672ZM44.9093 73.9672C44.8453 73.9992 44.7493 74.0419 44.6213 74.0952C44.5039 74.1485 44.3653 74.2019 44.2053 74.2552C44.0453 74.3085 43.8639 74.3565 43.6613 74.3992C43.4586 74.4419 43.2453 74.4632 43.0213 74.4632C42.7866 74.4632 42.5626 74.4312 42.3493 74.3672C42.1359 74.3032 41.9493 74.2072 41.7893 74.0792C41.6293 73.9405 41.5013 73.7699 41.4053 73.5672C41.3093 73.3645 41.2613 73.1299 41.2613 72.8632V66.8952H40.1093V66.0312H41.2613V63.2152H42.3493V66.0312H44.2693V66.8952H42.3493V72.5592C42.3706 72.8685 42.4773 73.0979 42.6693 73.2472C42.8719 73.3859 43.1013 73.4552 43.3573 73.4552C43.6666 73.4552 43.9386 73.4072 44.1733 73.3112C44.4079 73.2045 44.5573 73.1299 44.6213 73.0872L44.9093 73.9672ZM50.4655 74.5272C49.8575 74.5272 49.2975 74.4152 48.7855 74.1912C48.2842 73.9565 47.8468 73.6419 47.4735 73.2472C47.1002 72.8419 46.8068 72.3779 46.5935 71.8552C46.3908 71.3325 46.2895 70.7725 46.2895 70.1752C46.2895 69.5885 46.3908 69.0392 46.5935 68.5272C46.8068 68.0045 47.0948 67.5512 47.4575 67.1672C47.8308 66.7725 48.2735 66.4632 48.7855 66.2392C49.2975 66.0045 49.8522 65.8872 50.4495 65.8872C51.0575 65.8872 51.6122 66.0045 52.1135 66.2392C52.6255 66.4632 53.0628 66.7725 53.4255 67.1672C53.7882 67.5619 54.0708 68.0152 54.2735 68.5272C54.4762 69.0392 54.5775 69.5832 54.5775 70.1592C54.5775 70.2445 54.5775 70.3299 54.5775 70.4152C54.5775 70.5005 54.5722 70.5592 54.5615 70.5912H47.4255C47.4575 71.0392 47.5588 71.4552 47.7295 71.8392C47.9108 72.2125 48.1402 72.5379 48.4175 72.8152C48.6948 73.0925 49.0095 73.3112 49.3615 73.4712C49.7242 73.6205 50.1082 73.6952 50.5135 73.6952C50.7802 73.6952 51.0468 73.6579 51.3135 73.5832C51.5802 73.5085 51.8255 73.4072 52.0495 73.2792C52.2735 73.1512 52.4762 72.9965 52.6575 72.8152C52.8388 72.6232 52.9775 72.4152 53.0735 72.1912L54.0175 72.4472C53.8895 72.7565 53.7082 73.0392 53.4735 73.2952C53.2388 73.5405 52.9668 73.7592 52.6575 73.9512C52.3482 74.1325 52.0068 74.2712 51.6335 74.3672C51.2602 74.4739 50.8708 74.5272 50.4655 74.5272ZM53.5375 69.7592C53.5055 69.3112 53.3988 68.9059 53.2175 68.5432C53.0468 68.1699 52.8228 67.8499 52.5455 67.5832C52.2788 67.3165 51.9642 67.1085 51.6015 66.9592C51.2495 66.8099 50.8708 66.7352 50.4655 66.7352C50.0602 66.7352 49.6762 66.8099 49.3135 66.9592C48.9508 67.1085 48.6308 67.3165 48.3535 67.5832C48.0868 67.8499 47.8682 68.1699 47.6975 68.5432C47.5375 68.9165 47.4415 69.3219 47.4095 69.7592H53.5375ZM61.2161 66.9912C60.4801 67.0125 59.8401 67.2152 59.2961 67.5992C58.7521 67.9832 58.3681 68.5112 58.1441 69.1832V74.3672H57.0561V66.0312H58.0801V68.0312C58.3895 67.3912 58.8055 66.8899 59.3281 66.5272C59.8508 66.1645 60.4108 65.9832 61.0081 65.9832C61.0935 65.9832 61.1628 65.9885 61.2161 65.9992V66.9912ZM63.4655 74.3672V66.0312H64.5535V74.3672H63.4655ZM63.4655 64.2872V62.6872H64.5535V64.2872H63.4655ZM71.3019 74.5272C70.6939 74.5272 70.1392 74.4152 69.6379 74.1912C69.1365 73.9565 68.6992 73.6419 68.3259 73.2472C67.9632 72.8525 67.6805 72.3939 67.4779 71.8712C67.2752 71.3485 67.1739 70.7992 67.1739 70.2232C67.1739 69.6365 67.2752 69.0819 67.4779 68.5592C67.6912 68.0365 67.9792 67.5779 68.3419 67.1832C68.7152 66.7885 69.1525 66.4739 69.6539 66.2392C70.1552 66.0045 70.7045 65.8872 71.3019 65.8872C71.8992 65.8872 72.4485 66.0045 72.9499 66.2392C73.4619 66.4739 73.8992 66.7885 74.2619 67.1832C74.6352 67.5779 74.9232 68.0365 75.1259 68.5592C75.3392 69.0819 75.4459 69.6365 75.4459 70.2232C75.4459 70.7992 75.3445 71.3485 75.1419 71.8712C74.9392 72.3939 74.6512 72.8525 74.2779 73.2472C73.9152 73.6419 73.4779 73.9565 72.9659 74.1912C72.4645 74.4152 71.9099 74.5272 71.3019 74.5272ZM68.2779 70.2392C68.2779 70.7085 68.3579 71.1459 68.5179 71.5512C68.6779 71.9459 68.8912 72.2979 69.1579 72.6072C69.4352 72.9059 69.7552 73.1405 70.1179 73.3112C70.4912 73.4819 70.8859 73.5672 71.3019 73.5672C71.7179 73.5672 72.1072 73.4819 72.4699 73.3112C72.8432 73.1299 73.1685 72.8899 73.4459 72.5912C73.7232 72.2819 73.9419 71.9245 74.1019 71.5192C74.2619 71.1139 74.3419 70.6765 74.3419 70.2072C74.3419 69.7485 74.2619 69.3165 74.1019 68.9112C73.9419 68.4952 73.7232 68.1379 73.4459 67.8392C73.1685 67.5299 72.8432 67.2899 72.4699 67.1192C72.1072 66.9379 71.7179 66.8472 71.3019 66.8472C70.8859 66.8472 70.4965 66.9379 70.1339 67.1192C69.7712 67.2899 69.4512 67.5299 69.1739 67.8392C68.8965 68.1485 68.6779 68.5112 68.5179 68.9272C68.3579 69.3325 68.2779 69.7699 68.2779 70.2392ZM82.2255 66.9912C81.4895 67.0125 80.8495 67.2152 80.3055 67.5992C79.7615 67.9832 79.3775 68.5112 79.1535 69.1832V74.3672H78.0655V66.0312H79.0895V68.0312C79.3988 67.3912 79.8148 66.8899 80.3375 66.5272C80.8602 66.1645 81.4202 65.9832 82.0175 65.9832C82.1028 65.9832 82.1722 65.9885 82.2255 65.9992V66.9912ZM87.2429 74.5272C86.5922 74.5272 85.9575 74.4205 85.3389 74.2072C84.7202 73.9939 84.1869 73.6845 83.7389 73.2792L84.2349 72.5432C84.7042 72.9272 85.1789 73.2152 85.6589 73.4072C86.1495 73.5992 86.6722 73.6952 87.2269 73.6952C87.8989 73.6952 88.4322 73.5619 88.8269 73.2952C89.2322 73.0179 89.4349 72.6285 89.4349 72.1272C89.4349 71.8925 89.3815 71.7005 89.2749 71.5512C89.1682 71.3912 89.0082 71.2525 88.7949 71.1352C88.5922 71.0179 88.3309 70.9165 88.0109 70.8312C87.7015 70.7352 87.3389 70.6392 86.9229 70.5432C86.4429 70.4259 86.0269 70.3085 85.6749 70.1912C85.3229 70.0739 85.0295 69.9405 84.7949 69.7912C84.5709 69.6419 84.4002 69.4605 84.2829 69.2472C84.1762 69.0232 84.1229 68.7459 84.1229 68.4152C84.1229 67.9992 84.2029 67.6312 84.3629 67.3112C84.5335 66.9912 84.7575 66.7299 85.0349 66.5272C85.3229 66.3139 85.6535 66.1539 86.0269 66.0472C86.4109 65.9405 86.8162 65.8872 87.2429 65.8872C87.8829 65.8872 88.4642 65.9939 88.9869 66.2072C89.5095 66.4099 89.9309 66.6819 90.2509 67.0232L89.7229 67.6632C89.4135 67.3432 89.0349 67.1032 88.5869 66.9432C88.1495 66.7832 87.6909 66.7032 87.2109 66.7032C86.9229 66.7032 86.6562 66.7352 86.4109 66.7992C86.1655 66.8525 85.9469 66.9432 85.7549 67.0712C85.5735 67.1992 85.4295 67.3645 85.3229 67.5672C85.2162 67.7592 85.1629 67.9885 85.1629 68.2552C85.1629 68.4792 85.2002 68.6605 85.2749 68.7992C85.3495 68.9379 85.4722 69.0605 85.6429 69.1672C85.8135 69.2632 86.0269 69.3539 86.2829 69.4392C86.5495 69.5139 86.8695 69.5939 87.2429 69.6792C87.7762 69.8072 88.2455 69.9352 88.6509 70.0632C89.0562 70.1912 89.3922 70.3405 89.6589 70.5112C89.9362 70.6819 90.1442 70.8899 90.2829 71.1352C90.4215 71.3805 90.4909 71.6792 90.4909 72.0312C90.4909 72.7992 90.1975 73.4072 89.6109 73.8552C89.0242 74.3032 88.2349 74.5272 87.2429 74.5272Z" fill="#070712"/>
<rect x="8.08655" y="6.86719" width="99" height="99" stroke="#070712"/>
</svg>
